<svg xmlns="http://www.w3.org/2000/svg" xmlns:svg="http://www.w3.org/2000/svg" id="svg5" width="24.004" height="29.16" version="1.1" viewBox="0 0 6.351 7.715"><defs id="defs2"><rect id="rect1310" width="386.973" height="202.315" x="69.534" y="216.405"/></defs><g id="layer1" transform="translate(-19.368843,-58.905448)"><g id="text1308" aria-label="B" transform="scale(0.26458333)" style="font-size:40px;line-height:1.25;-inkscape-font-specification:sans-serif;white-space:pre;shape-inside:url(#rect1310)"><path style="font-weight:700;-inkscape-font-specification:'sans-serif Bold'" id="path2296" d="m 84.884766,233.92383 q 1.777343,0 2.695312,-0.78125 0.917969,-0.78125 0.917969,-2.30469 0,-1.50391 -0.917969,-2.28516 -0.917969,-0.80078 -2.695312,-0.80078 h -4.160157 v 6.17188 z m 0.253906,12.7539 q 2.265625,0 3.398437,-0.95703 1.152344,-0.95703 1.152344,-2.89062 0,-1.89453 -1.132812,-2.83203 -1.132813,-0.95703 -3.417969,-0.95703 h -4.414063 v 7.63671 z m 6.992187,-10.48828 q 2.421875,0.70313 3.75,2.59766 1.328125,1.89453 1.328125,4.64844 0,4.21875 -2.851562,6.28906 -2.851563,2.07031 -8.671875,2.07031 H 73.205078 v -29.16015 h 11.289063 q 6.074218,0 8.789062,1.83593 2.734375,1.83594 2.734375,5.87891 0,2.12891 -0.996094,3.63281 -0.996093,1.48438 -2.890625,2.20703 z"/></g></g></svg>