<?xml version="1.0" encoding="UTF-8" standalone="no"?>
<!-- Created with Inkscape (http://www.inkscape.org/) -->

<svg
   width="13.975891mm"
   height="10.402466mm"
   viewBox="0 0 13.975891 10.402466"
   version="1.1"
   id="svg5373"
   inkscape:version="1.1.2 (0a00cf5339, 2022-02-04)"
   sodipodi:docname="codeblock.svg"
   xmlns:inkscape="http://www.inkscape.org/namespaces/inkscape"
   xmlns:sodipodi="http://sodipodi.sourceforge.net/DTD/sodipodi-0.dtd"
   xmlns="http://www.w3.org/2000/svg"
   xmlns:svg="http://www.w3.org/2000/svg">
  <sodipodi:namedview
     id="namedview5375"
     pagecolor="#ffffff"
     bordercolor="#666666"
     borderopacity="1.0"
     inkscape:pageshadow="2"
     inkscape:pageopacity="0.0"
     inkscape:pagecheckerboard="0"
     inkscape:document-units="mm"
     showgrid="false"
     fit-margin-top="0"
     fit-margin-left="0"
     fit-margin-right="0"
     fit-margin-bottom="0"
     inkscape:zoom="1.9928726"
     inkscape:cx="81.540585"
     inkscape:cy="-51.433292"
     inkscape:window-width="1920"
     inkscape:window-height="995"
     inkscape:window-x="0"
     inkscape:window-y="0"
     inkscape:window-maximized="1"
     inkscape:current-layer="layer1" />
  <defs
     id="defs5370">
    <rect
       x="181.05574"
       y="409.90921"
       width="468.46597"
       height="282.13077"
       id="rect5788" />
  </defs>
  <g
     inkscape:label="Layer 1"
     inkscape:groupmode="layer"
     id="layer1"
     transform="translate(-48.312813,-109.48634)">
    <g
       aria-label="code
block"
       transform="scale(0.26458333)"
       id="text5786"
       style="font-size:20px;line-height:1.25;-inkscape-font-specification:sans-serif;white-space:pre;shape-inside:url(#rect5788)">
      <path
         d="m 190.23633,427.24414 q -0.66406,0.25391 -1.36719,0.37109 -0.69336,0.12696 -1.43555,0.12696 -2.32422,0 -3.58398,-1.25977 -1.25,-1.25976 -1.25,-3.68164 0,-1.16211 0.36133,-2.10937 0.36133,-0.94727 1.01562,-1.6211 0.6543,-0.67383 1.5625,-1.03515 0.90821,-0.3711 2.00196,-0.3711 0.76171,0 1.42578,0.10742 0.66406,0.10743 1.26953,0.35157 v 1.62109 q -0.63477,-0.33203 -1.29883,-0.47852 -0.6543,-0.15625 -1.35742,-0.15625 -0.6543,0 -1.24024,0.25391 -0.57617,0.24414 -1.01562,0.71289 -0.43945,0.46875 -0.69336,1.14258 -0.25391,0.67383 -0.25391,1.52344 0,1.77734 0.85938,2.66601 0.86914,0.87891 2.40234,0.87891 0.69336,0 1.33789,-0.15625 0.6543,-0.15625 1.25977,-0.46875 z"
         style="font-family:Consolas;-inkscape-font-specification:Consolas"
         id="path6204" />
      <path
         d="m 202.15039,422.625 q 0,1.14258 -0.32227,2.09961 -0.32226,0.94726 -0.92773,1.63086 -0.60547,0.67383 -1.47461,1.05469 -0.86914,0.37109 -1.97266,0.37109 -1.05468,0 -1.89453,-0.32227 -0.83007,-0.33203 -1.41601,-0.96679 -0.57617,-0.63477 -0.88867,-1.57227 -0.30274,-0.9375 -0.30274,-2.1582 0,-1.14258 0.32227,-2.08008 0.32226,-0.94727 0.92773,-1.62109 0.60547,-0.6836 1.47461,-1.05469 0.86914,-0.38086 1.97266,-0.38086 1.05468,0 1.88476,0.33203 0.83985,0.32227 1.41602,0.95703 0.58594,0.625 0.88867,1.5625 0.3125,0.9375 0.3125,2.14844 z m -1.73828,0.0781 q 0,-0.9082 -0.20508,-1.58203 -0.19531,-0.68359 -0.56641,-1.13281 -0.37109,-0.45898 -0.9082,-0.68359 -0.52734,-0.23438 -1.18164,-0.23438 -0.76172,0 -1.30859,0.30274 -0.53711,0.29297 -0.88867,0.79101 -0.3418,0.49805 -0.50782,1.16211 -0.15625,0.6543 -0.15625,1.37695 0,0.90821 0.19532,1.5918 0.20507,0.6836 0.57617,1.14258 0.37109,0.44922 0.89843,0.68359 0.52735,0.22461 1.19141,0.22461 0.76172,0 1.29883,-0.29297 0.54687,-0.30273 0.88867,-0.80078 0.35156,-0.49804 0.50781,-1.15234 0.16602,-0.66406 0.16602,-1.39649 z"
         style="font-family:Consolas;-inkscape-font-specification:Consolas"
         id="path6206" />
      <path
         d="m 204.11328,422.9082 q 0,-1.25 0.3418,-2.21679 0.34179,-0.97657 0.96679,-1.64063 0.63477,-0.67383 1.51368,-1.01562 0.88867,-0.35157 1.97265,-0.35157 0.46875,0 0.91797,0.0586 0.45899,0.0586 0.89844,0.18554 v -4.12109 h 1.70898 v 13.79883 h -1.52343 l -0.0586,-1.85547 q -0.71289,1.03516 -1.54297,1.5332 -0.83007,0.49805 -1.79687,0.49805 -0.83985,0 -1.48438,-0.35156 -0.63476,-0.35157 -1.06445,-0.98633 -0.41992,-0.64453 -0.63477,-1.54297 -0.21484,-0.89844 -0.21484,-1.99219 z m 1.73828,-0.10742 q 0,1.77734 0.51758,2.65625 0.52734,0.86914 1.48438,0.86914 0.64453,0 1.35742,-0.57617 0.72265,-0.57617 1.51367,-1.70898 v -4.55079 q -0.41992,-0.19531 -0.92774,-0.29296 -0.50781,-0.10743 -1.00585,-0.10743 -1.38672,0 -2.16797,0.89844 -0.77149,0.89844 -0.77149,2.8125 z"
         style="font-family:Consolas;-inkscape-font-specification:Consolas"
         id="path6208" />
      <path
         d="m 223.88867,422.18555 q 0,0.36132 -0.01,0.60547 -0.01,0.24414 -0.0293,0.45898 h -6.88477 q 0,1.50391 0.83985,2.31445 0.83984,0.80078 2.42187,0.80078 0.42969,0 0.85938,-0.0293 0.42968,-0.0391 0.83008,-0.0977 0.40039,-0.0586 0.76171,-0.12695 0.3711,-0.0781 0.6836,-0.16602 v 1.39649 q -0.69336,0.19531 -1.57227,0.3125 -0.86914,0.12695 -1.80664,0.12695 -1.25976,0 -2.16797,-0.3418 -0.9082,-0.34179 -1.49414,-0.98633 -0.57617,-0.65429 -0.85937,-1.59179 -0.27344,-0.94727 -0.27344,-2.13867 0,-1.03516 0.29297,-1.95313 0.30273,-0.92773 0.86914,-1.62109 0.57617,-0.70313 1.40625,-1.11328 0.83008,-0.41016 1.88476,-0.41016 1.0254,0 1.81641,0.32227 0.79102,0.32226 1.32813,0.91796 0.54687,0.58594 0.82031,1.43555 0.2832,0.83984 0.2832,1.88477 z m -1.76758,-0.24414 q 0.0293,-0.6543 -0.12695,-1.19141 -0.15625,-0.54688 -0.48828,-0.9375 -0.32227,-0.39063 -0.81055,-0.60547 -0.48828,-0.22461 -1.13281,-0.22461 -0.55664,0 -1.01563,0.21485 -0.45898,0.21484 -0.79101,0.60546 -0.33203,0.39063 -0.53711,0.9375 -0.20508,0.54688 -0.25391,1.20118 z"
         style="font-family:Consolas;-inkscape-font-specification:Consolas"
         id="path6210" />
      <path
         d="m 190.99805,447.86914 q 0,1.2207 -0.3418,2.1875 -0.33203,0.95703 -0.95703,1.63086 -0.61524,0.66406 -1.50391,1.02539 -0.88867,0.35156 -2.00195,0.35156 -0.86914,0 -1.77734,-0.16601 -0.90821,-0.16602 -1.79688,-0.52735 v -13.22265 h 1.69922 v 3.79883 l -0.0781,1.8164 q 0.73243,-0.98633 1.5625,-1.38672 0.83985,-0.41015 1.79688,-0.41015 0.83984,0 1.47461,0.35156 0.63476,0.35156 1.06445,0.99609 0.42969,0.63477 0.64453,1.54297 0.21485,0.89844 0.21485,2.01172 z m -1.73828,0.0781 q 0,-0.77149 -0.11719,-1.41602 -0.10742,-0.64453 -0.35156,-1.10352 -0.24415,-0.45898 -0.625,-0.71289 -0.38086,-0.26367 -0.90821,-0.26367 -0.32226,0 -0.65429,0.10742 -0.33204,0.0977 -0.69336,0.3418 -0.35157,0.23438 -0.75196,0.63477 -0.39062,0.39062 -0.83984,0.97656 v 4.75586 q 0.49805,0.19531 1.01562,0.3125 0.51758,0.10742 0.98633,0.10742 0.58594,0 1.11328,-0.18555 0.53711,-0.18554 0.9375,-0.61523 0.41016,-0.43945 0.64453,-1.15235 0.24415,-0.72265 0.24415,-1.7871 z"
         style="font-family:Consolas;-inkscape-font-specification:Consolas"
         id="path6212" />
      <path
         d="m 196.95508,440.54492 h -2.90039 v -1.39648 h 4.61914 v 12.38281 h 2.91992 v 1.41602 h -7.86133 v -1.41602 h 3.22266 z"
         style="font-family:Consolas;-inkscape-font-specification:Consolas"
         id="path6214" />
      <path
         d="m 213.14648,447.9668 q 0,1.14257 -0.32226,2.09961 -0.32227,0.94726 -0.92774,1.63086 -0.60546,0.67382 -1.47461,1.05468 -0.86914,0.3711 -1.97265,0.3711 -1.05469,0 -1.89453,-0.32227 -0.83008,-0.33203 -1.41602,-0.9668 -0.57617,-0.63476 -0.88867,-1.57226 -0.30273,-0.9375 -0.30273,-2.1582 0,-1.14258 0.32226,-2.08008 0.32227,-0.94727 0.92774,-1.6211 0.60546,-0.68359 1.4746,-1.05468 0.86915,-0.38086 1.97266,-0.38086 1.05469,0 1.88477,0.33203 0.83984,0.32226 1.41601,0.95703 0.58594,0.625 0.88867,1.5625 0.3125,0.9375 0.3125,2.14844 z m -1.73828,0.0781 q 0,-0.9082 -0.20508,-1.58203 -0.19531,-0.68359 -0.5664,-1.13281 -0.3711,-0.45899 -0.9082,-0.6836 -0.52735,-0.23437 -1.18165,-0.23437 -0.76171,0 -1.30859,0.30273 -0.53711,0.29297 -0.88867,0.79102 -0.3418,0.49805 -0.50781,1.16211 -0.15625,0.6543 -0.15625,1.37695 0,0.9082 0.19531,1.5918 0.20508,0.68359 0.57617,1.14258 0.37109,0.44922 0.89844,0.68359 0.52734,0.22461 1.1914,0.22461 0.76172,0 1.29883,-0.29297 0.54688,-0.30273 0.88867,-0.80078 0.35157,-0.49805 0.50782,-1.15234 0.16601,-0.66407 0.16601,-1.39649 z"
         style="font-family:Consolas;-inkscape-font-specification:Consolas"
         id="path6216" />
      <path
         d="m 223.22461,452.58594 q -0.66406,0.2539 -1.36719,0.37109 -0.69336,0.12695 -1.43555,0.12695 -2.32421,0 -3.58398,-1.25976 -1.25,-1.25977 -1.25,-3.68164 0,-1.16211 0.36133,-2.10938 0.36133,-0.94726 1.01562,-1.62109 0.6543,-0.67383 1.5625,-1.03516 0.90821,-0.37109 2.00196,-0.37109 0.76172,0 1.42578,0.10742 0.66406,0.10742 1.26953,0.35156 v 1.6211 q -0.63477,-0.33203 -1.29883,-0.47852 -0.6543,-0.15625 -1.35742,-0.15625 -0.6543,0 -1.24024,0.25391 -0.57617,0.24414 -1.01562,0.71289 -0.43945,0.46875 -0.69336,1.14258 -0.25391,0.67382 -0.25391,1.52343 0,1.77735 0.85938,2.66602 0.86914,0.87891 2.40234,0.87891 0.69336,0 1.33789,-0.15625 0.6543,-0.15625 1.25977,-0.46875 z"
         style="font-family:Consolas;-inkscape-font-specification:Consolas"
         id="path6218" />
      <path
         d="m 235.42187,452.94727 h -2.33398 l -4.57031,-5.25391 v 5.25391 h -1.69922 v -13.79883 h 1.69922 v 8.47656 l 4.40429,-4.48242 h 2.2461 l -4.59961,4.52148 z"
         style="font-family:Consolas;-inkscape-font-specification:Consolas"
         id="path6220" />
    </g>
  </g>
</svg>
