<?xml version="1.0" encoding="UTF-8" standalone="no"?>
<!-- Created with Inkscape (http://www.inkscape.org/) -->

<svg
   width="21.848795mm"
   height="7.3948975mm"
   viewBox="0 0 21.848795 7.3948975"
   version="1.1"
   id="svg3876"
   inkscape:version="1.1.2 (0a00cf5339, 2022-02-04)"
   sodipodi:docname="code.svg"
   xmlns:inkscape="http://www.inkscape.org/namespaces/inkscape"
   xmlns:sodipodi="http://sodipodi.sourceforge.net/DTD/sodipodi-0.dtd"
   xmlns="http://www.w3.org/2000/svg"
   xmlns:svg="http://www.w3.org/2000/svg">
  <sodipodi:namedview
     id="namedview3878"
     pagecolor="#ffffff"
     bordercolor="#666666"
     borderopacity="1.0"
     inkscape:pageshadow="2"
     inkscape:pageopacity="0.0"
     inkscape:pagecheckerboard="0"
     inkscape:document-units="mm"
     showgrid="false"
     fit-margin-top="0"
     fit-margin-left="0"
     fit-margin-right="0"
     fit-margin-bottom="0"
     inkscape:zoom="2.2781531"
     inkscape:cx="-5.9258528"
     inkscape:cy="69.573901"
     inkscape:window-width="1920"
     inkscape:window-height="995"
     inkscape:window-x="0"
     inkscape:window-y="0"
     inkscape:window-maximized="1"
     inkscape:current-layer="layer1" />
  <defs
     id="defs3873">
    <rect
       x="9.7172823"
       y="537.2403"
       width="457.64218"
       height="301.84784"
       id="rect4423" />
  </defs>
  <g
     inkscape:label="Layer 1"
     inkscape:groupmode="layer"
     id="layer1"
     transform="translate(-3.3873901,-144.2067)">
    <g
       aria-label="code"
       transform="scale(0.26458333)"
       id="text4421"
       style="font-size:40px;line-height:1.25;-inkscape-font-specification:sans-serif;white-space:pre;shape-inside:url(#rect4423)">
      <path
         d="m 28.076172,571.9082 q -1.328125,0.50782 -2.734375,0.74219 -1.386719,0.25391 -2.871094,0.25391 -4.648437,0 -7.167969,-2.51953 -2.5,-2.51954 -2.5,-7.36329 0,-2.32421 0.722657,-4.21875 0.722656,-1.89453 2.03125,-3.24218 1.308593,-1.34766 3.125,-2.07032 1.816406,-0.74218 4.003906,-0.74218 1.523437,0 2.851562,0.21484 1.328125,0.21484 2.539063,0.70313 v 3.24218 q -1.269531,-0.66406 -2.597656,-0.95703 -1.308594,-0.3125 -2.714844,-0.3125 -1.308594,0 -2.480469,0.50781 -1.152344,0.48829 -2.03125,1.42579 -0.878906,0.9375 -1.386719,2.28515 -0.507812,1.34766 -0.507812,3.04688 0,3.55468 1.71875,5.33203 1.738281,1.75781 4.804687,1.75781 1.386719,0 2.675782,-0.3125 1.308593,-0.3125 2.519531,-0.9375 z"
         style="font-family:Consolas;-inkscape-font-specification:Consolas"
         id="path6272" />
      <path
         d="m 51.904297,562.66992 q 0,2.28516 -0.644531,4.19922 -0.644532,1.89453 -1.855469,3.26172 -1.210938,1.34766 -2.949219,2.10937 -1.738281,0.74219 -3.945312,0.74219 -2.109375,0 -3.789063,-0.64453 -1.660156,-0.66406 -2.832031,-1.93359 -1.152344,-1.26953 -1.777344,-3.14453 -0.605469,-1.875 -0.605469,-4.31641 0,-2.28516 0.644532,-4.16016 0.644531,-1.89453 1.855468,-3.24218 1.210938,-1.36719 2.949219,-2.10938 1.738281,-0.76172 3.945313,-0.76172 2.109375,0 3.769531,0.66406 1.679687,0.64454 2.832031,1.91407 1.171875,1.25 1.777344,3.125 0.625,1.875 0.625,4.29687 z m -3.476563,0.15625 q 0,-1.8164 -0.410156,-3.16406 -0.390625,-1.36719 -1.132812,-2.26563 -0.742188,-0.91796 -1.816407,-1.36718 -1.054687,-0.46875 -2.363281,-0.46875 -1.523437,0 -2.617187,0.60547 -1.074219,0.58593 -1.777344,1.58203 -0.683594,0.99609 -1.015625,2.32422 -0.3125,1.30859 -0.3125,2.7539 0,1.81641 0.390625,3.1836 0.410156,1.36718 1.152344,2.28515 0.742187,0.89844 1.796875,1.36719 1.054687,0.44922 2.382812,0.44922 1.523438,0 2.597656,-0.58594 1.09375,-0.60547 1.777344,-1.60156 0.703125,-0.9961 1.015625,-2.30469 0.332031,-1.32812 0.332031,-2.79297 z"
         style="font-family:Consolas;-inkscape-font-specification:Consolas"
         id="path6274" />
      <path
         d="m 55.830078,563.23633 q 0,-2.5 0.683594,-4.4336 0.683594,-1.95312 1.933594,-3.28125 1.269531,-1.34765 3.027343,-2.03125 1.777344,-0.70312 3.945313,-0.70312 0.9375,0 1.835937,0.11719 0.917969,0.11718 1.796875,0.37109 v -8.24219 h 3.417969 v 27.59766 h -3.046875 l -0.117187,-3.71094 q -1.425782,2.07031 -3.085938,3.06641 -1.660156,0.99609 -3.59375,0.99609 -1.679687,0 -2.96875,-0.70312 -1.269531,-0.70313 -2.128906,-1.97266 -0.839844,-1.28906 -1.269531,-3.08594 -0.429688,-1.79687 -0.429688,-3.98437 z m 3.476563,-0.21485 q 0,3.55469 1.035156,5.3125 1.054687,1.73829 2.96875,1.73829 1.289062,0 2.714844,-1.15235 1.445312,-1.15234 3.027343,-3.41797 v -9.10156 q -0.839843,-0.39062 -1.855468,-0.58594 -1.015625,-0.21484 -2.011719,-0.21484 -2.773438,0 -4.335938,1.79687 -1.542968,1.79688 -1.542968,5.625 z"
         style="font-family:Consolas;-inkscape-font-specification:Consolas"
         id="path6276" />
      <path
         d="m 95.380859,561.79102 q 0,0.72265 -0.01953,1.21093 -0.01953,0.48828 -0.05859,0.91797 H 81.533203 q 0,3.00781 1.679688,4.62891 1.679687,1.60156 4.84375,1.60156 0.859375,0 1.71875,-0.0586 0.859375,-0.0781 1.660156,-0.19532 0.800781,-0.11718 1.523437,-0.2539 0.742188,-0.15625 1.367188,-0.33203 v 2.79297 q -1.386719,0.39062 -3.144531,0.625 -1.738282,0.2539 -3.613282,0.2539 -2.519531,0 -4.335937,-0.68359 -1.816406,-0.6836 -2.988281,-1.97266 -1.152344,-1.30859 -1.71875,-3.18359 -0.546875,-1.89453 -0.546875,-4.27735 0,-2.07031 0.585937,-3.90625 0.605469,-1.85546 1.738281,-3.24218 1.152344,-1.40625 2.8125,-2.22657 1.660157,-0.82031 3.769532,-0.82031 2.050781,0 3.632812,0.64453 1.582031,0.64453 2.65625,1.83594 1.09375,1.17188 1.640625,2.87109 0.566406,1.67969 0.566406,3.76954 z m -3.535156,-0.48829 q 0.05859,-1.30859 -0.253906,-2.38281 -0.3125,-1.09375 -0.976563,-1.875 -0.644531,-0.78125 -1.621093,-1.21094 -0.976563,-0.44921 -2.265625,-0.44921 -1.113282,0 -2.03125,0.42968 -0.917969,0.42969 -1.582032,1.21094 -0.664062,0.78125 -1.074218,1.875 -0.410157,1.09375 -0.507813,2.40234 z"
         style="font-family:Consolas;-inkscape-font-specification:Consolas"
         id="path6278" />
    </g>
  </g>
</svg>
