<svg xmlns="http://www.w3.org/2000/svg" xmlns:svg="http://www.w3.org/2000/svg" id="svg5" width="66.367" height="40.479" version="1.1" viewBox="0 0 17.56 10.71"><g id="layer1" transform="translate(-53.403406,-34.242926)"><g id="text1310" aria-label="hidden text" style="font-size:5.29167px;line-height:1.25;-inkscape-font-specification:sans-serif;stroke-width:.264583"><path id="path1856" d="m 56.165513,36.516691 v 1.746664 h -0.475424 v -1.731161 q 0,-0.410828 -0.160197,-0.61495 -0.160197,-0.204122 -0.480591,-0.204122 -0.38499,0 -0.607198,0.245463 -0.222209,0.245463 -0.222209,0.66921 v 1.63556 h -0.478008 v -4.020429 h 0.478008 v 1.576133 q 0.170532,-0.260967 0.400492,-0.390158 0.232544,-0.129191 0.534852,-0.129191 0.498678,0 0.754476,0.310059 0.255799,0.307475 0.255799,0.906922 z"/><path id="path1858" d="m 57.113776,35.369473 h 0.475423 v 2.893882 h -0.475423 z m 0,-1.126547 h 0.475423 v 0.602031 h -0.475423 z"/><path id="path1860" d="m 60.488249,35.808723 v -1.565797 h 0.475423 v 4.020429 h -0.475423 v -0.434082 q -0.149862,0.258382 -0.379822,0.38499 -0.227377,0.124023 -0.547771,0.124023 -0.524516,0 -0.855245,-0.418579 -0.328146,-0.41858 -0.328146,-1.100709 0,-0.682129 0.328146,-1.100709 0.330729,-0.418579 0.855245,-0.418579 0.320394,0 0.547771,0.126607 0.22996,0.124024 0.379822,0.382406 z m -1.620057,1.010275 q 0,0.524516 0.214457,0.82424 0.217041,0.297139 0.594279,0.297139 0.377239,0 0.59428,-0.297139 0.217041,-0.299724 0.217041,-0.82424 0,-0.524516 -0.217041,-0.821656 -0.217041,-0.299723 -0.59428,-0.299723 -0.377238,0 -0.594279,0.299723 -0.214457,0.29714 -0.214457,0.821656 z"/><path id="path1862" d="m 63.847219,35.808723 v -1.565797 h 0.475423 v 4.020429 h -0.475423 v -0.434082 q -0.149862,0.258382 -0.379822,0.38499 -0.227376,0.124023 -0.547771,0.124023 -0.524516,0 -0.855245,-0.418579 -0.328146,-0.41858 -0.328146,-1.100709 0,-0.682129 0.328146,-1.100709 0.330729,-0.418579 0.855245,-0.418579 0.320395,0 0.547771,0.126607 0.22996,0.124024 0.379822,0.382406 z m -1.620057,1.010275 q 0,0.524516 0.214457,0.82424 0.217041,0.297139 0.59428,0.297139 0.377238,0 0.594279,-0.297139 0.217041,-0.299724 0.217041,-0.82424 0,-0.524516 -0.217041,-0.821656 -0.217041,-0.299723 -0.594279,-0.299723 -0.377239,0 -0.59428,0.299723 -0.214457,0.29714 -0.214457,0.821656 z"/><path id="path1864" d="m 67.777214,36.697558 v 0.232545 h -2.185915 q 0.03101,0.490926 0.294556,0.749308 0.266134,0.255799 0.738973,0.255799 0.273886,0 0.529684,-0.06718 0.258383,-0.06718 0.511597,-0.201538 v 0.449585 q -0.255798,0.108521 -0.524516,0.165365 -0.268717,0.05684 -0.545187,0.05684 -0.692464,0 -1.098124,-0.403076 -0.403077,-0.403077 -0.403077,-1.090374 0,-0.710551 0.382406,-1.126547 0.38499,-0.418579 1.036113,-0.418579 0.583944,0 0.922425,0.377238 0.341065,0.374655 0.341065,1.02061 z M 67.30179,36.558032 q -0.0052,-0.390157 -0.219625,-0.622701 -0.211873,-0.232545 -0.563273,-0.232545 -0.397909,0 -0.638205,0.224793 -0.237711,0.224793 -0.273885,0.633037 z"/><path id="path1866" d="m 70.963068,36.516691 v 1.746664 h -0.475424 v -1.731161 q 0,-0.410828 -0.160197,-0.61495 -0.160197,-0.204122 -0.480591,-0.204122 -0.38499,0 -0.607199,0.245463 -0.222208,0.245463 -0.222208,0.66921 v 1.63556 h -0.478008 v -2.893882 h 0.478008 v 0.449586 q 0.170532,-0.260967 0.400492,-0.390158 0.232544,-0.129191 0.534852,-0.129191 0.498678,0 0.754476,0.310059 0.255799,0.307475 0.255799,0.906922 z"/><path id="path1868" d="m 54.230229,41.162405 v 0.821656 h 0.979269 v 0.369486 h -0.979269 v 1.570965 q 0,0.353984 0.0956,0.454753 0.09819,0.100769 0.395325,0.100769 h 0.488343 v 0.397909 h -0.488343 q -0.550354,0 -0.759644,-0.204122 -0.209289,-0.206706 -0.209289,-0.749309 v -1.570965 h -0.348816 v -0.369486 h 0.348816 v -0.821656 z"/><path id="path1870" d="m 58.310086,43.312146 v 0.232544 h -2.185915 q 0.03101,0.490926 0.294556,0.749309 0.266134,0.255798 0.738974,0.255798 0.273885,0 0.529683,-0.06718 0.258383,-0.06718 0.511597,-0.201539 v 0.449586 q -0.255798,0.10852 -0.524516,0.165364 -0.268717,0.05684 -0.545186,0.05684 -0.692465,0 -1.098125,-0.403076 -0.403077,-0.403076 -0.403077,-1.090373 0,-0.710552 0.382406,-1.126547 0.38499,-0.41858 1.036113,-0.41858 0.583944,0 0.922425,0.377239 0.341065,0.374654 0.341065,1.02061 z m -0.475424,-0.139527 q -0.0052,-0.390157 -0.219625,-0.622701 -0.211873,-0.232544 -0.563273,-0.232544 -0.397909,0 -0.638204,0.224792 -0.237712,0.224793 -0.273886,0.633037 z"/><path id="path1872" d="m 61.402922,41.984061 -1.046448,1.408183 1.100708,1.485699 H 60.896493 L 60.054166,43.74106 59.21184,44.877943 h -0.56069 l 1.123964,-1.514121 -1.028362,-1.379761 h 0.56069 l 0.767395,1.030945 0.767396,-1.030945 z"/><path id="path1874" d="m 62.599232,41.162405 v 0.821656 h 0.979269 v 0.369486 h -0.979269 v 1.570965 q 0,0.353984 0.0956,0.454753 0.09819,0.100769 0.395325,0.100769 h 0.488342 v 0.397909 h -0.488342 q -0.550355,0 -0.759644,-0.204122 -0.20929,-0.206706 -0.20929,-0.749309 v -1.570965 h -0.348816 v -0.369486 h 0.348816 v -0.821656 z"/></g></g></svg>