<?xml version="1.0" encoding="UTF-8" standalone="no"?>
<!-- Created with Inkscape (http://www.inkscape.org/) -->

<svg
   width="42.021542mm"
   height="38.525215mm"
   viewBox="0 0 42.021542 38.525215"
   version="1.1"
   id="svg5"
   inkscape:version="1.1.2 (0a00cf5339, 2022-02-04)"
   sodipodi:docname="image.svg"
   xmlns:inkscape="http://www.inkscape.org/namespaces/inkscape"
   xmlns:sodipodi="http://sodipodi.sourceforge.net/DTD/sodipodi-0.dtd"
   xmlns="http://www.w3.org/2000/svg"
   xmlns:svg="http://www.w3.org/2000/svg">
  <sodipodi:namedview
     id="namedview7"
     pagecolor="#ffffff"
     bordercolor="#666666"
     borderopacity="1.0"
     inkscape:pageshadow="2"
     inkscape:pageopacity="0.0"
     inkscape:pagecheckerboard="0"
     inkscape:document-units="mm"
     showgrid="false"
     fit-margin-top="0"
     fit-margin-left="0"
     fit-margin-right="0"
     fit-margin-bottom="0"
     inkscape:zoom="1.3647694"
     inkscape:cx="-58.984322"
     inkscape:cy="-14.65449"
     inkscape:window-width="1920"
     inkscape:window-height="995"
     inkscape:window-x="0"
     inkscape:window-y="0"
     inkscape:window-maximized="1"
     inkscape:current-layer="layer1" />
  <defs
     id="defs2" />
  <g
     inkscape:label="Layer 1"
     inkscape:groupmode="layer"
     id="layer1"
     transform="translate(-19.181153,-114.96592)">
    <rect
       style="fill:#0000ff;fill-opacity:0;stroke:#000000;stroke-width:1;stroke-miterlimit:4;stroke-dasharray:none"
       id="rect846"
       width="39.825283"
       height="37.525215"
       x="20.490383"
       y="115.46592" />
    <text
       xml:space="preserve"
       style="font-size:1.15672px;line-height:1.25;font-family:sans-serif;-inkscape-font-specification:sans-serif;stroke-width:0.0578359"
       x="21.143465"
       y="116.9656"
       id="text1843"><tspan
         sodipodi:role="line"
         id="tspan1841"
         style="stroke-width:0.0578359"
         x="21.143465"
         y="116.9656">el bozo </tspan><tspan
         sodipodi:role="line"
         style="stroke-width:0.0578359"
         x="21.143465"
         y="118.4115"
         id="tspan2247">rishaano</tspan></text>
    <path
       style="fill:#000000;fill-opacity:0.996265;stroke:#000000;stroke-width:0.1;stroke-miterlimit:4;stroke-dasharray:none"
       id="path3121"
       d="m 19.25443,141.81072 c 0.47708,0.0531 0.955014,0.0975 1.434179,0.12698 0.553998,0.0351 1.107121,0.0286 1.659226,-0.0267 0.431561,-0.0489 0.858265,-0.12531 1.280662,-0.2253 1.890976,-0.57851 3.718302,-1.58348 5.122493,-2.98258 0.540665,-0.51319 0.976175,-1.11435 1.380307,-1.73682 0.441294,-0.79104 0.825114,-1.61155 1.188644,-2.44058 0.119779,-0.27316 0.24503,-0.54408 0.355933,-0.82096 0.131744,-0.32892 0.24784,-0.6639 0.371763,-0.99584 0.728282,-1.89753 1.583344,-3.74408 2.307627,-5.64285 0.287084,-0.78947 0.536686,-1.59087 0.868868,-2.36308 0.169042,-0.35022 0.311402,-0.7072 0.404458,-1.08473 0.05143,-0.16478 0.07851,-0.36083 0.188704,-0.50151 0.01402,-0.0179 0.02865,-0.05 0.05093,-0.0454 0.03849,0.008 0.06079,0.0498 0.09118,0.0748 -1.427451,0.78702 -2.836553,1.60828 -4.282355,2.36105 -0.03455,0.018 -0.03823,-0.0692 -0.04613,-0.10736 -0.01289,-0.0623 0.04152,0.0453 0.05896,0.0814 0.06074,0.12561 0.05486,0.11872 0.113999,0.26411 0.03601,0.0725 0.07371,0.14423 0.108032,0.21757 0.08751,0.18702 0.148928,0.35386 0.247681,0.53699 0.197089,0.36549 0.434213,0.70187 0.680657,1.03478 0.439854,0.58262 0.933093,1.12203 1.392211,1.68894 0.191638,0.23663 0.519406,0.67062 0.704257,0.91328 0.410168,0.55893 0.789909,1.14145 1.222283,1.68406 0.118628,0.14887 0.534246,0.62772 0.660304,0.77381 0.563669,0.67227 1.283843,1.18219 2.01422,1.65676 0.180589,0.10079 0.284946,0.16784 0.473575,0.2422 0.02865,0.0113 0.341951,0.12021 0.388798,0.0952 4.312795,-2.30088 3.71539,-0.90344 4.395165,-2.63733 0.02442,-0.12691 0.04283,-0.25511 0.07323,-0.38072 0.260263,-1.07537 0.640628,-2.11599 0.982065,-3.16652 0.09023,-0.27762 0.172955,-0.55763 0.259432,-0.83645 0.361005,-1.19715 0.481533,-2.44623 0.682011,-3.67584 0.129942,-0.63627 0.219157,-1.27977 0.349755,-1.91574 0.09949,-0.52596 0.248494,-1.04007 0.387996,-1.5562 0.202723,-0.60057 0.2693,-1.2351 0.363664,-1.85915 0.08894,-0.58234 0.237831,-1.15283 0.348067,-1.73109 0.06338,-0.19853 0.03673,-0.45584 0.172816,-0.62655 0.0089,-0.002 0.02064,-0.0121 0.02685,-0.005 0.0269,0.0289 0.09709,0.0829 0.06199,0.10099 -1.474359,0.761 -2.985952,1.4476 -4.47603,2.17734 -0.004,0.002 0.0047,0.008 0.0064,0.0116 0.0072,0.0168 0.01495,0.0335 0.02056,0.051 0.0065,0.02 0.0104,0.0407 0.01561,0.0611 0.05732,0.21902 0.07938,0.44669 0.09766,0.67195 0.01352,0.31708 0.07747,0.61996 0.186211,0.91716 0.16473,0.41802 0.414518,0.79849 0.666883,1.1682 0.53535,0.82261 1.179316,1.56656 1.769988,2.34924 0.599866,0.83411 1.235996,1.65344 1.738527,2.55178 0.157017,0.23698 0.208412,0.52938 0.342633,0.77634 0.04983,0.0917 0.09741,0.13486 0.16647,0.21052 0.158568,0.15144 0.361979,0.20175 0.572553,0.22855 0.157872,0.007 0.315794,0.0174 0.473813,0.0206 0.142471,-0.0422 0.302768,0.009 0.446427,0.0322 0.191722,0.0317 0.3865,0.0296 0.579405,0.0477 0.215884,0.0165 0.418225,-0.0319 0.613495,-0.11949 0.178599,-0.0684 0.356373,-0.13729 0.540843,-0.18835 0.215429,-0.0443 0.43661,-0.0635 0.656227,-0.0582 0.326157,0.0192 0.652598,0.0544 0.974516,0.11121 0.184883,0.032 0.363122,0.0926 0.547365,0.12697 0.185407,-0.01 0.368189,0.0212 0.550521,0.0502 0.246229,0.0445 0.487296,0.11095 0.734288,0.15242 0.161284,0.0219 0.32331,0.0404 0.485698,0.052 0.07545,-0.007 0.135943,0.0251 0.20529,0.0464 1.593768,0.48926 2.910433,-1.62729 4.353653,-2.46191 0.05914,-0.12268 0.166941,-0.18499 0.27941,-0.24792 0.01733,-0.003 0.06714,-0.0169 0.05199,-0.008 -1.395288,0.81382 -2.797016,1.61655 -4.195501,2.42487 -0.09975,0.0577 0.09067,-0.0471 0.106162,-0.0561 1.425241,-0.82436 2.850996,-1.64782 4.276497,-2.47173 0.0084,-0.006 0.0168,-0.0126 0.02521,-0.0189 0.0098,-0.002 0.02114,7.9e-4 0.02942,-0.005 0.0089,-0.006 0.01029,-0.0192 0.01796,-0.0268 1.159555,-1.13899 -4.691551,4.02364 -4.206705,2.41065 -0.0048,-0.0652 0.0099,-0.0855 0.07483,-0.0913 0.06681,-0.002 0.133615,5.3e-4 0.20043,5.3e-4 0.107127,-0.003 0.152,0.0372 0.07524,-0.099 -0.01392,-0.0132 -0.06689,-0.1592 -0.08858,-0.0869 -0.0045,0.0204 -0.0063,0.0412 -0.008,0.062 0,0 4.444899,-2.25634 4.444899,-2.25634 v 0 c -0.0013,-0.0272 -0.0031,-0.0543 -0.0074,-0.0812 -0.02101,-0.11828 -0.07489,-0.22623 -0.144904,-0.32351 -0.07982,-0.10209 -0.124243,-0.14648 -0.252497,-0.13219 -0.06477,-5.3e-4 -0.129569,7.9e-4 -0.194281,-0.003 -0.07044,-0.007 -0.12619,-0.0416 -0.189767,-0.0707 -1.686428,-0.21127 -3.020475,1.69811 -4.409662,2.51718 1.407723,-0.81286 2.816029,-1.62471 4.223168,-2.43858 0.01161,-0.007 -0.02495,0.0101 -0.03644,0.017 -0.109143,0.0655 0.04515,-0.0137 -0.07724,0.0466 -1.427289,0.82271 -2.857219,1.64088 -4.280347,2.47077 -0.01588,0.009 -0.02183,0.0296 -0.03275,0.0444 -0.08925,0.0863 -0.163518,0.19747 -0.292608,0.22667 1.400112,-0.80726 2.79313,-1.62696 4.200337,-2.42179 0.01609,-0.009 -0.006,0.0365 -0.0094,0.0547 -0.01196,0.0637 -0.02193,0.0676 -0.08472,0.0712 -0.01733,10e-4 -0.03462,0.002 -0.05193,0.003 -0.166733,0.009 -0.333526,0.0198 -0.500653,0.0153 -0.242622,-0.007 -0.486198,-0.0265 -0.717243,-0.10698 -0.179387,-0.0432 -0.356338,-0.0968 -0.53644,-0.13592 -0.207666,0.0123 -0.415475,-0.003 -0.622107,-0.0249 -0.321982,-0.0415 -0.635896,-0.12335 -0.956524,-0.17215 -0.228134,-0.0263 -0.454737,-0.0602 -0.685699,-0.0474 -0.206997,0.005 -0.409901,0.0381 -0.604491,0.11118 -0.188423,0.0528 -0.342898,0.16753 -0.528302,0.22689 -0.16941,0.0456 -0.3498,0.0149 -0.523859,0.0183 -0.157803,-0.009 -0.313306,-0.0322 -0.460007,-0.0942 -0.159128,0.005 -0.318077,0.0175 -0.477417,0.0166 -0.135623,0.005 -0.271891,0.008 -0.406916,0.0199 -0.210719,-0.0453 -0.526235,-0.56216 -0.676433,-0.70537 -0.178848,-0.22522 -0.344073,-0.46113 -0.525381,-0.68437 -0.101555,-0.12505 -0.214275,-0.24061 -0.319371,-0.36268 -0.387482,-0.4501 -0.760325,-0.91301 -1.104275,-1.39748 -0.118822,-0.17321 -0.242097,-0.34344 -0.356465,-0.51961 -0.408453,-0.62919 -0.752547,-1.29506 -1.106922,-1.95504 -0.17835,-0.37634 -0.376232,-0.74519 -0.500716,-1.14436 -0.07126,-0.26905 -0.116874,-0.54262 -0.122743,-0.82174 -0.01696,-0.25369 -0.03377,-0.50763 -0.06852,-0.75965 -0.0088,-0.051 -0.01466,-0.10243 -0.02392,-0.15332 -0.0043,-0.0238 0.006,-0.0809 -0.01606,-0.0708 -11.613906,5.32243 -4.831,0.48947 -4.434191,2.29198 0.0181,0.20169 0.0041,0.40453 -0.0058,0.60629 -0.05159,0.55469 -0.130783,1.10626 -0.222136,1.65572 -0.11898,0.62458 -0.260091,1.24169 -0.457131,1.84702 -0.157126,0.52037 -0.272362,1.04796 -0.346443,1.58682 -0.102693,0.62836 -0.232129,1.25372 -0.217519,1.8946 -0.032,1.15174 -0.107389,2.30585 -0.361558,3.43311 -0.165399,0.64953 -0.242388,1.0094 -0.469207,1.65209 -0.23408,0.66326 -0.452136,1.16235 -0.784283,1.78101 -0.120561,0.22456 -0.24664,0.44711 -0.391745,0.65664 -0.09422,0.13606 -0.215802,0.25099 -0.323702,0.37649 -1.491163,0.77521 -1.481878,0.77251 3.891693,-2.18064 0.04737,-0.026 -0.07478,0.0819 -0.12368,0.10489 -0.214482,0.10106 -0.470283,-0.007 -0.675645,-0.0649 -0.271071,-0.11621 -0.392549,-0.16016 -0.65699,-0.30978 -0.525737,-0.29745 -0.989711,-0.684 -1.403352,-1.1227 -0.685292,-0.7642 -1.299559,-1.58567 -1.932027,-2.39338 -0.671497,-0.86818 -1.371037,-1.71783 -1.971234,-2.63814 -0.326239,-0.56579 -0.636698,-1.15018 -0.744177,-1.80277 -0.0063,-0.0281 -0.06814,-0.30523 -0.07883,-0.34029 -0.614114,-2.01304 -3.760005,1.02555 -4.606714,1.90141 0.007,0.043 0.01834,0.0855 0.02106,0.12892 0.01212,0.19379 -0.08881,0.39119 -0.112416,0.57977 -0.11145,0.3458 -0.262697,0.67821 -0.353907,1.03076 -0.184914,0.72474 -0.292695,1.46666 -0.480547,2.19102 -0.12819,0.50253 -0.210822,0.84669 -0.363175,1.35227 -0.419883,1.39339 -0.950989,2.75363 -1.574485,4.06827 -0.781343,1.50432 -1.514387,3.05019 -2.507931,4.42984 -0.490224,0.63014 -1.020556,1.2301 -1.648279,1.72826 -0.06791,0.051 -0.133899,0.10459 -0.203737,0.15287 -0.06034,0.0417 -0.250064,0.15342 -0.186453,0.11689 1.320776,-0.75848 2.635765,-1.52703 3.958081,-2.28283 0.05092,-0.0291 -0.09333,0.0714 -0.143156,0.10234 -0.08593,0.0534 -0.230441,0.11884 -0.320783,0.16177 -0.417105,0.15115 -0.852255,0.24841 -1.28888,0.32436 -0.537056,0.0924 -1.080018,0.1405 -1.625463,0.11066 -0.403571,-0.0157 -0.818893,-0.0319 -1.200568,-0.17702 0,0 -4.070454,2.80818 -4.070454,2.80818 z" />
  </g>
</svg>
