<?xml version="1.0" encoding="UTF-8" standalone="no"?>
<!-- Created with Inkscape (http://www.inkscape.org/) -->

<svg
   width="8.8444271mm"
   height="4.0204287mm"
   viewBox="0 0 8.8444271 4.0204287"
   version="1.1"
   id="svg5"
   inkscape:version="1.1.2 (0a00cf5339, 2022-02-04)"
   sodipodi:docname="link.svg"
   xmlns:inkscape="http://www.inkscape.org/namespaces/inkscape"
   xmlns:sodipodi="http://sodipodi.sourceforge.net/DTD/sodipodi-0.dtd"
   xmlns="http://www.w3.org/2000/svg"
   xmlns:svg="http://www.w3.org/2000/svg">
  <sodipodi:namedview
     id="namedview7"
     pagecolor="#ffffff"
     bordercolor="#666666"
     borderopacity="1.0"
     inkscape:pageshadow="2"
     inkscape:pageopacity="0.0"
     inkscape:pagecheckerboard="0"
     inkscape:document-units="mm"
     showgrid="false"
     fit-margin-top="0"
     fit-margin-left="0"
     fit-margin-right="0"
     fit-margin-bottom="0"
     inkscape:zoom="6.4128354"
     inkscape:cx="48.574457"
     inkscape:cy="20.661687"
     inkscape:window-width="1920"
     inkscape:window-height="995"
     inkscape:window-x="0"
     inkscape:window-y="0"
     inkscape:window-maximized="1"
     inkscape:current-layer="layer1" />
  <defs
     id="defs2" />
  <g
     inkscape:label="Layer 1"
     inkscape:groupmode="layer"
     id="layer1"
     transform="translate(-23.465585,-133.61534)">
    <g
       aria-label="link"
       id="text1736"
       style="font-size:5.29167px;line-height:1.25;-inkscape-font-specification:sans-serif;stroke-width:0.264583">
      <path
         d="m 23.465585,133.61534 h 0.475424 v 4.02043 h -0.475424 z"
         style="fill:#0000ff"
         id="path2742" />
      <path
         d="m 24.935781,134.74189 h 0.475423 v 2.89388 h -0.475423 z m 0,-1.12655 h 0.475423 v 0.60203 h -0.475423 z"
         style="fill:#0000ff"
         id="path2744" />
      <path
         d="m 28.811516,135.88911 v 1.74666 h -0.475424 v -1.73116 q 0,-0.41083 -0.160197,-0.61495 -0.160197,-0.20412 -0.480591,-0.20412 -0.38499,0 -0.607198,0.24546 -0.222209,0.24547 -0.222209,0.66921 v 1.63556 h -0.478008 v -2.89388 h 0.478008 v 0.44959 q 0.170532,-0.26097 0.400492,-0.39016 0.232544,-0.12919 0.534852,-0.12919 0.498678,0 0.754476,0.31006 0.255799,0.30747 0.255799,0.90692 z"
         style="fill:#0000ff"
         id="path2746" />
      <path
         d="m 29.741692,133.61534 h 0.478007 v 2.37454 l 1.418519,-1.24799 h 0.607199 l -1.534791,1.35392 1.599386,1.53996 h -0.620117 l -1.470196,-1.41335 v 1.41335 h -0.478007 z"
         style="fill:#0000ff"
         id="path2748" />
    </g>
  </g>
</svg>
