<svg xmlns="http://www.w3.org/2000/svg" xmlns:svg="http://www.w3.org/2000/svg" id="svg5" width="33.428" height="15.195" version="1.1" viewBox="0 0 8.844 4.02"><g id="layer1" transform="translate(-23.465585,-133.61534)"><g id="text1736" aria-label="link" style="font-size:5.29167px;line-height:1.25;-inkscape-font-specification:sans-serif;stroke-width:.264583"><path style="fill:#00f" id="path2742" d="m 23.465585,133.61534 h 0.475424 v 4.02043 h -0.475424 z"/><path style="fill:#00f" id="path2744" d="m 24.935781,134.74189 h 0.475423 v 2.89388 h -0.475423 z m 0,-1.12655 h 0.475423 v 0.60203 h -0.475423 z"/><path style="fill:#00f" id="path2746" d="m 28.811516,135.88911 v 1.74666 h -0.475424 v -1.73116 q 0,-0.41083 -0.160197,-0.61495 -0.160197,-0.20412 -0.480591,-0.20412 -0.38499,0 -0.607198,0.24546 -0.222209,0.24547 -0.222209,0.66921 v 1.63556 h -0.478008 v -2.89388 h 0.478008 v 0.44959 q 0.170532,-0.26097 0.400492,-0.39016 0.232544,-0.12919 0.534852,-0.12919 0.498678,0 0.754476,0.31006 0.255799,0.30747 0.255799,0.90692 z"/><path style="fill:#00f" id="path2748" d="m 29.741692,133.61534 h 0.478007 v 2.37454 l 1.418519,-1.24799 h 0.607199 l -1.534791,1.35392 1.599386,1.53996 h -0.620117 l -1.470196,-1.41335 v 1.41335 h -0.478007 z"/></g></g></svg>