<svg xmlns="http://www.w3.org/2000/svg" xmlns:svg="http://www.w3.org/2000/svg" id="svg5" width="71.608" height="50.915" version="1.1" viewBox="0 0 18.946 13.471"><g id="layer1" transform="translate(-7.746978,-66.195266)"><path id="rect4304" d="m 7.8794775,66.327766 h 4.6703105 v 3.301582 H 7.8794775 Z" style="fill:gray;fill-opacity:.25;stroke:#000;stroke-width:.264999"/><path id="rect4304-6" d="M 7.8794775,69.629349 H 12.549788 V 72.93093 H 7.8794775 Z" style="fill:gray;fill-opacity:.25;stroke:#000;stroke-width:.264999"/><path id="rect4304-2" d="m 7.8794775,72.930931 h 4.6703105 v 3.301581 H 7.8794775 Z" style="fill:gray;fill-opacity:.25;stroke:#000;stroke-width:.264999"/><path id="rect4304-61" d="m 7.8794775,76.232513 h 4.6703105 v 3.301582 H 7.8794775 Z" style="fill:gray;fill-opacity:.25;stroke:#000;stroke-width:.264999"/><path id="rect4304-8" d="m 12.549788,66.327766 h 4.670311 v 3.301582 h -4.670311 z" style="fill:gray;fill-opacity:.25;stroke:#000;stroke-width:.264999"/><path id="rect4304-6-7" d="m 12.549788,69.629349 h 4.670311 v 3.301581 h -4.670311 z" style="fill:#8181a5;fill-opacity:0;stroke:#000;stroke-width:.264999"/><path id="rect4304-2-9" d="m 12.549788,72.930939 h 4.670311 v 3.301581 h -4.670311 z" style="fill:#8181a5;fill-opacity:0;stroke:#000;stroke-width:.264999"/><path id="rect4304-61-2" d="m 12.549788,76.232513 h 4.670311 v 3.301582 h -4.670311 z" style="fill:#8181a5;fill-opacity:0;stroke:#000;stroke-width:.264999"/><path id="rect4304-0" d="m 17.2201,66.327766 h 4.670311 v 3.301582 H 17.2201 Z" style="fill:gray;fill-opacity:.25;stroke:#000;stroke-width:.264999"/><path id="rect4304-6-2" d="m 17.2201,69.629349 h 4.670311 V 72.93093 H 17.2201 Z" style="fill:#8181a5;fill-opacity:0;stroke:#000;stroke-width:.264999"/><path id="rect4304-2-3" d="m 17.2201,72.930931 h 4.670311 v 3.301581 H 17.2201 Z" style="fill:#8181a5;fill-opacity:0;stroke:#000;stroke-width:.264999"/><path id="rect4304-61-7" d="m 17.2201,76.232513 h 4.670311 v 3.301582 H 17.2201 Z" style="fill:#8181a5;fill-opacity:0;stroke:#000;stroke-width:.264999"/><path id="rect4304-8-5" d="m 21.890411,66.327766 h 4.670311 v 3.301582 h -4.670311 z" style="fill:gray;fill-opacity:.25;stroke:#000;stroke-width:.264999"/><path id="rect4304-6-7-9" d="m 21.890411,69.629349 h 4.670311 v 3.301581 h -4.670311 z" style="fill:#8181a5;fill-opacity:0;stroke:#000;stroke-width:.264999"/><path id="rect4304-2-9-2" d="m 21.890411,72.930939 h 4.670311 v 3.301581 h -4.670311 z" style="fill:#8181a5;fill-opacity:0;stroke:#000;stroke-width:.264999"/><path id="rect4304-61-2-2" d="m 21.890411,76.232513 h 4.670311 v 3.301582 h -4.670311 z" style="fill:#8181a5;fill-opacity:0;stroke:#000;stroke-width:.264999"/></g></svg>